<svg width="50" height="50" viewBox="0 0 50 50" fill="none" xmlns="http://www.w3.org/2000/svg">
<g clip-path="url(#clip0_1269_3838)">
<path d="M21.6711 16.7526L32.9219 10.3545C32.9219 10.3545 27.6168 9.3425 25.5118 4.40873C25.5118 4.40873 22.3325 7.44289 17.9566 4.67637C17.9566 4.67637 16.1191 7.2978 13.0021 7.66907L21.6711 16.7526Z" fill="#E9EEF2"/>
<path d="M17.3567 4.86272L20.7018 15.738L22.4705 19L34.2021 12.6063L32.9224 10.3561L22.4705 16.3L26.1113 4.597C26.1367 4.5181 26.1462 4.43495 26.1393 4.35235C26.1324 4.26976 26.1091 4.18935 26.071 4.11578C26.0328 4.04222 25.9804 3.97694 25.9168 3.92374C25.8533 3.87053 25.7798 3.83044 25.7007 3.80579C25.6216 3.78113 25.5383 3.7724 25.4558 3.7801C25.3733 3.7878 25.2931 3.81177 25.2199 3.85064C25.1467 3.8895 25.0819 3.94249 25.0293 4.00653C24.9767 4.07057 24.9372 4.14441 24.9133 4.22377L21.6752 14.6301L18.5576 4.49333C18.5086 4.33407 18.3984 4.20081 18.2511 4.12283C18.1782 4.08423 18.0984 4.06036 18.0163 4.05259C17.9342 4.04482 17.8513 4.05331 17.7724 4.07756C17.6936 4.10182 17.6203 4.14137 17.5567 4.19395C17.4931 4.24653 17.4406 4.31112 17.4019 4.38403C17.3633 4.45694 17.3395 4.53674 17.3317 4.61887C17.3239 4.701 17.3324 4.78386 17.3567 4.86272Z" fill="#CFD2D5"/>
<path d="M14 8.5L23 22L28 29C30.5 29.5 34 28.5 34 30.5C34 31.9026 32.5 31.9026 32.5 31.9026H18.6745C17.4347 31.9026 16.2458 30.877 15.3691 29.0514C14.4925 27.2258 14 24.7498 14 22.1681V8.5Z" fill="#A3D4F7"/>
<path d="M13 16H21V19H13V16Z" fill="#99C7E8"/>
<path d="M10 2.65723L12.8701 1.0002L36.6208 42.1377L33.7508 43.7947L10 2.65723Z" fill="#E9EEF2"/>
<path d="M10 2.65723L12.8701 1.0002L15.0794 4.82697L12.2094 6.48399L10 2.65723Z" fill="#99C7E8"/>
<path d="M14.0625 40.623L27.3417 27.3438L29.6851 29.6872L16.4059 42.9664L14.0625 40.623Z" fill="#E9EEF2"/>
<path d="M34.625 47.6562C37.2138 47.6562 39.3125 45.5576 39.3125 42.9688C39.3125 40.3799 37.2138 38.2812 34.625 38.2812C32.0362 38.2812 29.9375 40.3799 29.9375 42.9688C29.9375 45.5576 32.0362 47.6562 34.625 47.6562Z" fill="#7A6D79"/>
<path d="M34.625 44.5312C35.4879 44.5312 36.1875 43.8317 36.1875 42.9688C36.1875 42.1058 35.4879 41.4062 34.625 41.4062C33.7621 41.4062 33.0625 42.1058 33.0625 42.9688C33.0625 43.8317 33.7621 44.5312 34.625 44.5312Z" fill="#DADCDE"/>
<path d="M27.3438 33.5938C29.0696 33.5938 30.4688 32.1946 30.4688 30.4688C30.4688 28.7429 29.0696 27.3438 27.3438 27.3438C25.6179 27.3438 24.2188 28.7429 24.2188 30.4688C24.2188 32.1946 25.6179 33.5938 27.3438 33.5938Z" fill="#CFD2D5"/>
<path d="M14.0625 47.6562C17.5143 47.6562 20.3125 44.858 20.3125 41.4062C20.3125 37.9545 17.5143 35.1562 14.0625 35.1562C10.6107 35.1562 7.8125 37.9545 7.8125 41.4062C7.8125 44.858 10.6107 47.6562 14.0625 47.6562Z" fill="#7A6D79"/>
<path d="M14.0625 44.5312C15.7884 44.5312 17.1875 43.1321 17.1875 41.4062C17.1875 39.6804 15.7884 38.2812 14.0625 38.2812C12.3366 38.2812 10.9375 39.6804 10.9375 41.4062C10.9375 43.1321 12.3366 44.5312 14.0625 44.5312Z" fill="#DADCDE"/>
</g>
<defs>
<clipPath id="clip0_1269_3838">
<rect width="50" height="50" fill="white"/>
</clipPath>
</defs>
</svg>
