<svg width="50" height="50" viewBox="0 0 50 50" fill="none" xmlns="http://www.w3.org/2000/svg">
<path d="M10.1562 17.9688H44.5312V25.7812C44.5312 27.4389 43.8728 29.0286 42.7007 30.2007C41.5286 31.3728 39.9389 32.0312 38.2812 32.0312H16.4062C14.7486 32.0312 13.1589 31.3728 11.9868 30.2007C10.8147 29.0286 10.1563 27.4389 10.1562 25.7812V17.9688Z" fill="#A3D4F7"/>
<path d="M28.9062 17.9688L25 2.34375C25 2.34375 30.4688 6.25 36.7188 3.90625C36.7188 3.90625 36.7188 9.375 42.9688 10.9375C42.9688 10.9375 42.1875 14.8438 44.5312 17.9688H28.9062Z" fill="#E9EEF2"/>
<path d="M43.3184 11.6367L30.6543 17.9688H25.7812L21.875 3.125L25 2.34375L28.6289 16.8594L36.0361 3.52734C36.0853 3.4367 36.152 3.35671 36.2323 3.29199C36.3127 3.22727 36.405 3.1791 36.504 3.15027C36.6031 3.12144 36.7068 3.11251 36.8093 3.12401C36.9118 3.13551 37.011 3.1672 37.1012 3.21726C37.1914 3.26731 37.2707 3.33474 37.3347 3.41565C37.3987 3.49656 37.446 3.58934 37.4739 3.68863C37.5018 3.78792 37.5098 3.89176 37.4973 3.99415C37.4849 4.09654 37.4523 4.19545 37.4014 4.28516L30.8154 16.1406L42.6191 10.2383C42.8046 10.1456 43.0193 10.1303 43.216 10.1959C43.3134 10.2283 43.4034 10.2797 43.481 10.3469C43.5585 10.4142 43.6221 10.4961 43.668 10.5879C43.7139 10.6797 43.7413 10.7797 43.7485 10.8821C43.7558 10.9845 43.7428 11.0873 43.7104 11.1847C43.6779 11.2821 43.6266 11.3721 43.5593 11.4497C43.4921 11.5273 43.4102 11.5908 43.3184 11.6367Z" fill="#CFD2D5"/>
<path d="M9.375 17.9688H45.3125V21.0938H9.375V17.9688Z" fill="#99C7E8"/>
<path d="M4.6875 9.37695L7.03089 7.03357L40.6195 40.6222L38.2761 42.9656L4.6875 9.37695Z" fill="#E9EEF2"/>
<path d="M4.6875 9.375L7.03089 7.03161L10.1554 10.1562L7.81204 12.4995L4.6875 9.375Z" fill="#99C7E8"/>
<path d="M14.0625 40.623L27.3417 27.3438L29.6851 29.6872L16.4059 42.9664L14.0625 40.623Z" fill="#E9EEF2"/>
<path d="M40.625 47.6562C43.2138 47.6562 45.3125 45.5576 45.3125 42.9688C45.3125 40.3799 43.2138 38.2812 40.625 38.2812C38.0362 38.2812 35.9375 40.3799 35.9375 42.9688C35.9375 45.5576 38.0362 47.6562 40.625 47.6562Z" fill="#7A6D79"/>
<path d="M40.625 44.5312C41.4879 44.5312 42.1875 43.8317 42.1875 42.9688C42.1875 42.1058 41.4879 41.4062 40.625 41.4062C39.7621 41.4062 39.0625 42.1058 39.0625 42.9688C39.0625 43.8317 39.7621 44.5312 40.625 44.5312Z" fill="#DADCDE"/>
<path d="M27.3438 33.5938C29.0696 33.5938 30.4688 32.1946 30.4688 30.4688C30.4688 28.7429 29.0696 27.3438 27.3438 27.3438C25.6179 27.3438 24.2188 28.7429 24.2188 30.4688C24.2188 32.1946 25.6179 33.5938 27.3438 33.5938Z" fill="#CFD2D5"/>
<path d="M14.0625 47.6562C17.5143 47.6562 20.3125 44.858 20.3125 41.4062C20.3125 37.9545 17.5143 35.1562 14.0625 35.1562C10.6107 35.1562 7.8125 37.9545 7.8125 41.4062C7.8125 44.858 10.6107 47.6562 14.0625 47.6562Z" fill="#7A6D79"/>
<path d="M14.0625 44.5312C15.7884 44.5312 17.1875 43.1321 17.1875 41.4062C17.1875 39.6804 15.7884 38.2812 14.0625 38.2812C12.3366 38.2812 10.9375 39.6804 10.9375 41.4062C10.9375 43.1321 12.3366 44.5312 14.0625 44.5312Z" fill="#DADCDE"/>
</svg>
