<svg width="50" height="50" viewBox="0 0 50 50" fill="none" xmlns="http://www.w3.org/2000/svg">
<path d="M10.1562 17.9688H44.5312V25.7812C44.5312 27.4389 43.8728 29.0286 42.7007 30.2007C41.5286 31.3728 39.9389 32.0312 38.2812 32.0312H16.4062C14.7486 32.0312 13.1589 31.3728 11.9868 30.2007C10.8147 29.0286 10.1563 27.4389 10.1562 25.7812V17.9688Z" fill="#A3D4F7"/>
<path d="M9.375 17.9688H45.3125V21.0938H9.375V17.9688Z" fill="#99C7E8"/>
<path d="M4.6875 9.37695L7.03089 7.03357L40.6195 40.6222L38.2761 42.9656L4.6875 9.37695Z" fill="#E9EEF2"/>
<path d="M4.6875 9.375L7.03089 7.03161L10.1554 10.1562L7.81204 12.4995L4.6875 9.375Z" fill="#99C7E8"/>
<path d="M14.0625 40.623L27.3417 27.3438L29.6851 29.6872L16.4059 42.9664L14.0625 40.623Z" fill="#E9EEF2"/>
<path d="M40.625 47.6562C43.2138 47.6562 45.3125 45.5576 45.3125 42.9688C45.3125 40.3799 43.2138 38.2812 40.625 38.2812C38.0362 38.2812 35.9375 40.3799 35.9375 42.9688C35.9375 45.5576 38.0362 47.6562 40.625 47.6562Z" fill="#7A6D79"/>
<path d="M40.625 44.5312C41.4879 44.5312 42.1875 43.8317 42.1875 42.9688C42.1875 42.1058 41.4879 41.4062 40.625 41.4062C39.7621 41.4062 39.0625 42.1058 39.0625 42.9688C39.0625 43.8317 39.7621 44.5312 40.625 44.5312Z" fill="#DADCDE"/>
<path d="M27.3438 33.5938C29.0696 33.5938 30.4688 32.1946 30.4688 30.4688C30.4688 28.7429 29.0696 27.3438 27.3438 27.3438C25.6179 27.3438 24.2188 28.7429 24.2188 30.4688C24.2188 32.1946 25.6179 33.5938 27.3438 33.5938Z" fill="#CFD2D5"/>
<path d="M14.0625 47.6562C17.5143 47.6562 20.3125 44.858 20.3125 41.4062C20.3125 37.9545 17.5143 35.1562 14.0625 35.1562C10.6107 35.1562 7.8125 37.9545 7.8125 41.4062C7.8125 44.858 10.6107 47.6562 14.0625 47.6562Z" fill="#7A6D79"/>
<path d="M14.0625 44.5312C15.7884 44.5312 17.1875 43.1321 17.1875 41.4062C17.1875 39.6804 15.7884 38.2812 14.0625 38.2812C12.3366 38.2812 10.9375 39.6804 10.9375 41.4062C10.9375 43.1321 12.3366 44.5312 14.0625 44.5312Z" fill="#DADCDE"/>
</svg>
