<svg width="50" height="50" viewBox="0 0 50 50" fill="none" xmlns="http://www.w3.org/2000/svg">
<path d="M17.6882 50H19.9239C20.4852 50 20.9401 49.545 20.9401 48.9838V45.7715H16.6719V48.9838C16.672 49.545 17.127 50 17.6882 50Z" fill="#7A6D79"/>
<path d="M32.3146 50H30.0788C29.5176 50 29.0625 49.545 29.0625 48.9838V45.7715H33.3308V48.9838C33.3308 49.545 32.8758 50 32.3146 50Z" fill="#7A6D79"/>
<path d="M18.9062 2.35938H22.1583V14.3092H18.9062V2.35938Z" fill="#BCE6F2"/>
<path d="M31.1016 14.3086H27.8495V2.35879H31.1016V14.3086Z" fill="#BCE6F2"/>
<path d="M11.7891 41.8693L16.6672 46.7474H33.3338L38.2119 41.8693V18.2921L33.3338 13.4141H16.6672L11.7891 18.2921V41.8693Z" fill="#C3ECF8"/>
<path d="M35.1643 16.4638V43.6996C35.1643 44.3859 34.9374 45.0191 34.5547 45.5287L38.2131 41.8703V18.2931L34.5548 14.6348C34.9374 15.1442 35.1643 15.7775 35.1643 16.4638Z" fill="#55C6E4"/>
<path d="M35.1574 13.4141H33.3281V15.8531C33.3281 17.2002 34.4201 18.2922 35.7672 18.2922H38.2062V16.4629C38.2062 14.779 36.8412 13.4141 35.1574 13.4141Z" fill="#77CEF0"/>
<path d="M14.8379 13.4141H16.6672V15.8531C16.6672 17.2002 15.5752 18.2922 14.2281 18.2922H11.7891V16.4629C11.7891 14.779 13.1541 13.4141 14.8379 13.4141Z" fill="#94D4E4"/>
<path d="M14.8379 46.7492H16.6672V44.3102C16.6672 42.9631 15.5752 41.8711 14.2281 41.8711H11.7891V43.7004C11.7891 45.3843 13.1541 46.7492 14.8379 46.7492Z" fill="#94D4E4"/>
<path d="M35.1574 46.7492H33.3281V44.3102C33.3281 42.9631 34.4201 41.8711 35.7672 41.8711H38.2062V43.7004C38.2062 45.3843 36.8412 46.7492 35.1574 46.7492Z" fill="#77CEF0"/>
<path d="M16.875 2.43906V0.812988C16.875 0.363965 17.239 0 17.688 0H32.3222C32.7712 0 33.1352 0.363965 33.1352 0.812988V2.43896C33.1352 2.88799 32.7712 3.25195 32.3222 3.25195H17.688C17.239 3.25205 16.875 2.88799 16.875 2.43906Z" fill="#918291"/>
<path d="M32.3145 0H29.2656C29.7146 0 30.0786 0.363965 30.0786 0.812988V2.43896C30.0786 2.88799 29.7146 3.25195 29.2656 3.25195H32.3145C32.7635 3.25195 33.1274 2.88799 33.1274 2.43896V0.812988C33.1274 0.363965 32.7635 0 32.3145 0Z" fill="#7A6D79"/>
<path d="M27.0293 40.9775C26.6248 40.9775 26.2969 40.6496 26.2969 40.2451V19.9199C26.2969 19.5154 26.6248 19.1875 27.0293 19.1875C27.4338 19.1875 27.7617 19.5154 27.7617 19.9199V40.2451C27.7617 40.6496 27.4338 40.9775 27.0293 40.9775Z" fill="#55C6E4"/>
<path d="M31.0996 40.9775C30.6951 40.9775 30.3672 40.6496 30.3672 40.2451V19.9199C30.3672 19.5154 30.6951 19.1875 31.0996 19.1875C31.5041 19.1875 31.832 19.5154 31.832 19.9199V40.2451C31.832 40.6496 31.5041 40.9775 31.0996 40.9775Z" fill="#55C6E4"/>
<path d="M22.9668 40.9775C22.5623 40.9775 22.2344 40.6496 22.2344 40.2451V19.9199C22.2344 19.5154 22.5623 19.1875 22.9668 19.1875C23.3713 19.1875 23.6992 19.5154 23.6992 19.9199V40.2451C23.6992 40.6496 23.3713 40.9775 22.9668 40.9775Z" fill="#55C6E4"/>
<path d="M18.9043 40.9775C18.4998 40.9775 18.1719 40.6496 18.1719 40.2451V19.9199C18.1719 19.5154 18.4998 19.1875 18.9043 19.1875C19.3088 19.1875 19.6367 19.5154 19.6367 19.9199V40.2451C19.6367 40.6496 19.3088 40.9775 18.9043 40.9775Z" fill="#55C6E4"/>
</svg>
