<svg width="50" height="50" viewBox="0 0 50 50" fill="none" xmlns="http://www.w3.org/2000/svg">
<g clip-path="url(#clip0_1269_3781)">
<path d="M21.9582 3.90625H17.9688C16.6763 3.90625 15.625 4.95758 15.625 6.25V9.06525C15.625 9.76257 15.9317 10.4187 16.4673 10.865C17.0029 11.3113 17.704 11.496 18.3876 11.3708L24.2188 10.3111V14.8438C24.2188 15.2756 24.5682 15.625 25 15.625C25.4318 15.625 25.7812 15.2756 25.7812 14.8438V7.72934C25.7812 5.62134 24.0662 3.90625 21.9582 3.90625Z" fill="#D9ECFF"/>
<path d="M35.9375 0H31.9481C29.8401 0 28.125 1.71509 28.125 3.82309V13.2812C28.125 13.7131 28.4744 14.0625 28.9062 14.0625C29.3381 14.0625 29.6875 13.7131 29.6875 13.2812V6.40488L35.5179 7.4646C36.2045 7.59048 36.9034 7.40509 37.439 6.95877C37.9745 6.51245 38.2812 5.85632 38.2812 5.159V2.34375C38.2812 1.05133 37.2299 0 35.9375 0Z" fill="#D9ECFF"/>
<path d="M33.9539 10.9375C33.6197 10.9375 33.2924 10.997 32.9826 11.1137L30.7266 11.9591C28.3882 12.8365 25.9354 13.2812 23.4375 13.2812C21.2837 13.2812 19.5312 15.0337 19.5312 17.1875C19.5312 17.6193 19.8807 17.9688 20.3125 17.9688H35.9375C36.3693 17.9688 36.7188 17.6193 36.7188 17.1875V13.7024C36.7188 12.178 35.4782 10.9375 33.9539 10.9375Z" fill="#45A9F4"/>
<path d="M19.4922 30.9922C20.4922 29.6953 21.0938 28.0156 21.0938 26.1719C21.0938 22.0703 18.1172 18.75 14.4531 18.75C10.7891 18.75 7.8125 22.0703 7.8125 26.1719C7.8125 27.5547 8.14843 28.8437 8.73437 29.9453C9.69529 31.75 10.3281 33.7344 10.1797 35.7656C10.1641 35.9531 10.1562 36.1406 10.1562 36.3281C10.1562 39.9922 12.7812 42.9688 16.0156 42.9688C19.25 42.9688 21.875 39.9922 21.875 36.3281C21.875 34.1406 20.9375 32.2031 19.4922 30.9922ZM16.0156 39.8438C14.5312 39.8438 13.2812 38.2344 13.2812 36.3281C13.2812 36.2187 13.2812 36.1094 13.2969 36C13.4687 33.5859 12.8672 31.0547 11.5 28.4766C11.1328 27.7891 10.9375 26.9922 10.9375 26.1719C10.9375 23.8047 12.5156 21.875 14.4531 21.875C16.3906 21.875 17.9688 23.8047 17.9688 26.1719C17.9688 27.25 18.75 35.1484 18.75 36.3281C18.75 38.2344 17.5 39.8438 16.0156 39.8438Z" fill="#45A9F4"/>
<path d="M35.1562 43.75H21.0938C20.6619 43.75 20.3125 44.0994 20.3125 44.5312V47.6562C20.3125 48.9487 21.3638 50 22.6562 50H33.5938C34.8862 50 35.9375 48.9487 35.9375 47.6562V44.5312C35.9375 44.0994 35.5881 43.75 35.1562 43.75Z" fill="#45A9F4"/>
<path d="M37.5 16.4062H18.75C18.3182 16.4062 17.9688 16.7557 17.9688 17.1875V41.4062C17.9688 44.4214 20.4224 46.875 23.4375 46.875H32.8125C35.8276 46.875 38.2812 44.4214 38.2812 41.4062V17.1875C38.2812 16.7557 37.9318 16.4062 37.5 16.4062Z" fill="#64C4FF"/>
<path d="M38.2812 21.0938V17.1875C38.2812 16.7557 37.9318 16.4062 37.5 16.4062H18.75C18.3182 16.4062 17.9688 16.7557 17.9688 17.1875V21.0938H38.2812Z" fill="#FFE094"/>
<path d="M40.625 24.2188H32.8125C32.3807 24.2188 32.0312 24.5682 32.0312 25V40.625C32.0312 41.0568 32.3807 41.4062 32.8125 41.4062H34.375C38.2523 41.4062 41.4062 38.2523 41.4062 34.375V25C41.4062 24.5682 41.0568 24.2188 40.625 24.2188Z" fill="#D9ECFF"/>
<path d="M41.4062 24.2188H32.0312C31.5998 24.2188 31.25 24.5685 31.25 25V28.125C31.25 28.5565 31.5998 28.9062 32.0312 28.9062H41.4062C41.8377 28.9062 42.1875 28.5565 42.1875 28.125V25C42.1875 24.5685 41.8377 24.2188 41.4062 24.2188Z" fill="#B9D8F9"/>
<path d="M29.6875 34.375H21.875C21.4432 34.375 21.0938 34.7244 21.0938 35.1562V39.0625C21.0938 41.6473 23.1964 43.75 25.7812 43.75C28.3661 43.75 30.4688 41.6473 30.4688 39.0625V35.1562C30.4688 34.7244 30.1193 34.375 29.6875 34.375Z" fill="#FFE094"/>
<path d="M29.6875 34.375H21.875C21.4435 34.375 21.0938 34.7248 21.0938 35.1562V38.2812H30.4688V35.1562C30.4688 34.7248 30.119 34.375 29.6875 34.375Z" fill="#FFCD7D"/>
<path d="M41.4062 32.0312H38.2812C36.9888 32.0312 35.9375 33.0826 35.9375 34.375V36.7188C35.9375 37.1506 36.2869 37.5 36.7188 37.5C37.1506 37.5 37.5 37.1506 37.5 36.7188V34.375C37.5 33.9439 37.8502 33.5938 38.2812 33.5938H41.4062V32.0312Z" fill="#B9D8F9"/>
</g>
<defs>
<clipPath id="clip0_1269_3781">
<rect width="50" height="50" fill="white"/>
</clipPath>
</defs>
</svg>
