<svg width="22" height="22" viewBox="0 0 22 22" fill="none" xmlns="http://www.w3.org/2000/svg">
<path d="M12.6618 11.0003L17.8615 5.8005C18.0462 5.61584 18.0462 5.31703 17.8615 5.13244L16.8678 4.13825C16.7793 4.0498 16.6592 4 16.5338 4C16.4084 4 16.2883 4.0498 16.1998 4.13825L11 9.33844L5.80022 4.13825C5.71171 4.0498 5.59161 4 5.46621 4C5.34085 4 5.22071 4.0498 5.13224 4.13825L4.13848 5.13244C3.95384 5.31703 3.95384 5.61584 4.13848 5.8005L9.33827 11.0003L4.139 16.1995C3.95445 16.3842 3.95445 16.683 4.139 16.8676L5.13281 17.8617C5.22126 17.9502 5.3414 18 5.46679 18C5.59218 18 5.71229 17.9502 5.80083 17.8617L11 12.6622L16.1992 17.8617C16.2877 17.9502 16.4078 18 16.5332 18C16.6586 18 16.7787 17.9502 16.8671 17.8617L17.861 16.8676C18.0455 16.683 18.0455 16.3842 17.861 16.1995L12.6618 11.0003Z" fill="#AAAAAA"/>
</svg>
