<svg width="16" height="16" viewBox="0 0 16 16" fill="none" xmlns="http://www.w3.org/2000/svg">
<g clip-path="url(#clip0_1269_3978)">
<path d="M15.9582 6.13718C15.8528 5.8132 15.5655 5.58383 15.2268 5.55319L10.6081 5.13387L8.78275 0.86036C8.64798 0.54639 8.34134 0.34375 8.00002 0.34375C7.65871 0.34375 7.35194 0.54639 7.21803 0.86036L5.39268 5.13387L0.773216 5.55319C0.434587 5.58444 0.147839 5.81381 0.0418805 6.13718C-0.0634679 6.46116 0.0338237 6.81651 0.289932 7.04113L3.78132 10.1026L2.75189 14.6366C2.67657 14.97 2.80596 15.3147 3.08258 15.5147C3.23126 15.6227 3.40595 15.6766 3.58125 15.6766C3.73188 15.6766 3.88264 15.6366 4.01729 15.556L8.00002 13.1747L11.982 15.556C12.2741 15.7306 12.6415 15.7146 12.9175 15.5147C13.1941 15.3147 13.3235 14.97 13.2482 14.6366L12.2187 10.1026L15.7101 7.04113C15.9661 6.81651 16.0635 6.46189 15.9582 6.13718Z" fill="#2C5BEA"/>
</g>
<defs>
<clipPath id="clip0_1269_3978">
<rect width="16" height="16" fill="white"/>
</clipPath>
</defs>
</svg>
