<svg width="378" height="135" viewBox="0 0 378 135" fill="none" xmlns="http://www.w3.org/2000/svg">
<g clip-path="url(#clip0_1435_7039)">
<path d="M344.87 53.5762H14.9297V100.419H344.87V53.5762Z" fill="#363635"/>
<path d="M270.686 115.608H270.177C267.619 115.608 265.539 113.526 265.539 110.965V88.2099C265.539 66.7884 282.881 49.4116 304.292 49.4116C326.257 49.4116 344.063 67.2378 344.063 89.2285V115.608H339.035V98.8157C339.035 79.851 323.534 63.7026 304.591 63.8524C286.187 63.9872 271.27 78.6826 270.701 97.0032V97.3177C270.701 97.5724 270.686 97.8271 270.686 98.0817C270.686 98.3364 270.686 98.591 270.701 98.8457V115.623L270.686 115.608Z" fill="#99D1CB"/>
<path d="M20.0768 110.47H16.8748L14.9297 101.917V90.7714C14.9297 69.35 32.2713 51.9731 53.6828 51.9731C75.6479 51.9731 93.4534 69.7994 93.4534 91.79V110.59C93.4534 113.361 91.209 115.623 88.4259 115.623V98.8307C88.4259 79.866 72.9247 63.7175 53.9821 63.8673C35.5781 64.0021 20.6604 78.6975 20.0918 97.0181V97.3327C20.0918 97.5873 20.0768 97.842 20.0768 98.0966C20.0768 98.3513 20.0768 98.606 20.0918 98.8606V110.5L20.0768 110.47Z" fill="#99D1CB"/>
<path d="M349.391 96.9582C346.937 94.9359 346.623 89.5431 346.219 85.9928C351.381 85.9478 369.59 86.0976 369.59 86.0976L371.146 98.1266C371.476 100.673 373.645 102.576 376.204 102.576H377.88C377.88 102.576 356.992 103.22 349.406 96.9731L349.391 96.9582Z" fill="#5ABCB5"/>
<path d="M222.748 4.36682C222.03 3.99232 221.296 3.61782 220.578 3.2583C221.311 3.61782 222.03 3.97734 222.748 4.36682Z" fill="#73C3BC"/>
<path d="M3.62095 76.4656H4.26434V64.4067C4.26434 56.8717 8.13965 49.876 14.5137 45.8764L17.0723 33.3381C18.9875 23.9756 26.5586 12.0215 29.8953 7.09309C30.8678 5.64003 32.4239 4.68131 34.1596 4.4566L59.6409 1.11606L34.1895 4.4566C32.4688 4.68131 30.9277 5.62505 29.9551 7.06313L52.3092 4.26186L76.2793 1.22092C111.037 -3.18321 146.155 -4.02209 181.077 -1.29572L186.569 -0.861304C199.481 0.157338 211.915 4.53151 222.613 11.8268L263.955 40.0342L328.594 48.423C343.945 50.4153 356.813 60.7216 362.229 74.9975C362.394 75.4469 370.683 75.372 370.848 75.8214C370.893 75.9413 371.416 75.9413 372.269 75.8814C372.06 75.8364 371.835 75.8214 371.611 75.8214C373.377 75.8214 374.858 77.1397 375.052 78.8923L375.905 86.0977H369.561L371.117 98.1267C371.446 100.673 373.616 102.576 376.175 102.576H377.85C378.15 105.062 377.925 107.594 377.222 110.006L376.878 111.174C376.1 113.811 373.661 115.623 370.908 115.623H339.022V98.8308C339.022 79.8661 323.521 63.7176 304.579 63.8674C286.175 64.0022 271.257 78.6976 270.688 97.0182V97.3328C270.688 97.5874 270.673 97.8421 270.673 98.0967C270.673 98.3514 270.673 98.6061 270.688 98.8607V115.638H88.414V98.8457C88.414 79.881 72.9127 63.7326 53.9701 63.8824C35.5661 64.0172 20.6484 78.7126 20.0798 97.0332V97.3477C20.0798 97.6024 20.0648 97.8571 20.0648 98.1117C20.0648 98.3664 20.0648 98.621 20.0798 98.8757V110.515H12.4489C5.56608 110.515 0 104.928 0 98.0368V80.1357C0 78.1284 1.63092 76.4955 3.63591 76.4955L3.62095 76.4656Z" fill="#73C3BC"/>
<path d="M139.602 -2.85373C153.442 -2.88369 167.282 -2.37437 181.093 -1.29581L186.584 -0.861389C199.497 0.157253 211.931 4.53142 222.629 11.8267L262.983 39.36V115.608H139.602V-2.85373Z" fill="#86CAC4"/>
<path d="M218.227 2.16474C216.895 1.56553 215.548 1.02625 214.172 0.501953C215.533 1.01127 216.88 1.56553 218.227 2.16474Z" fill="#73C3BC"/>
<path d="M328.607 48.4229L263.969 40.0341L222.627 11.8267C211.914 4.51646 199.495 0.142294 186.582 -0.861368L181.091 -1.29579C146.168 -4.03713 111.051 -3.18327 76.2929 1.22086L52.3229 4.2618L29.9688 7.06307C30.9413 5.63996 32.4825 4.68124 34.2032 4.45654L59.6545 1.116L83.6246 -1.92495C105.335 -4.66629 127.211 -6.02948 149.071 -5.99952C161.535 -5.98454 173.984 -5.50518 186.433 -4.57641C187.091 -4.53147 187.764 -4.48653 188.423 -4.42661L191.61 -4.17195L193.899 -3.99219C195.769 -3.84239 197.64 -3.61769 199.48 -3.33307C201.425 -3.03347 203.37 -2.65897 205.285 -2.19459C205.674 -2.10471 206.049 -2.01483 206.438 -1.90997C209.056 -1.23587 211.645 -0.426947 214.173 0.516795C215.535 1.02612 216.881 1.58038 218.228 2.17958C219.006 2.52412 219.799 2.88364 220.562 3.27312C221.295 3.63264 222.014 3.99216 222.732 4.38164C223.779 4.9359 224.827 5.50514 225.844 6.10434C227.236 6.92825 228.597 7.79709 229.944 8.71087L271.285 36.9183L335.924 45.3071C352.667 47.4792 366.448 59.5381 370.832 75.8513C370.682 75.387 362.393 75.4769 362.213 75.0274C356.797 60.7515 343.929 50.4452 328.577 48.4529L328.607 48.4229Z" fill="#99D1CB"/>
<path d="M370.859 75.8213H371.622C371.847 75.8213 372.071 75.8513 372.281 75.8812C371.428 75.9411 370.904 75.9261 370.859 75.8213Z" fill="#99D1CB"/>
<path d="M338.946 51.1643C338.946 51.1643 338.991 51.1643 339.021 51.1793H338.946C349.584 55.4935 358.083 64.0771 362.228 74.9975C362.332 75.2971 355.539 74.5032 350.826 74.0388C347.789 73.7392 344.991 72.3161 342.971 70.0241C338.273 64.7362 330.687 55.3737 332.362 51.9582C332.916 50.8197 337.405 50.5501 338.946 51.1793V51.1643Z" fill="#EFE763"/>
<path d="M370.859 75.8213H371.622C371.847 75.8213 372.071 75.8513 372.281 75.8812C371.428 75.9411 370.904 75.9261 370.859 75.8213Z" fill="#B9DEDA"/>
<path d="M213.994 0.426758C219.605 2.50898 224.977 5.28029 229.96 8.68075L271.301 36.8881L266.723 38.8505C265.002 39.5845 263.042 39.3898 261.486 38.3412L222.613 11.8266C218.603 9.08521 214.354 6.76331 209.925 4.87583C209.191 4.56125 209.087 3.55758 209.775 3.12316L213.994 0.426758Z" fill="#CCE7E4"/>
<path d="M370.859 75.8213H371.622C371.847 75.8213 372.071 75.8513 372.281 75.8812C371.428 75.9411 370.904 75.9261 370.859 75.8213Z" fill="#99D1CB"/>
<g style="mix-blend-mode:multiply" opacity="0.3">
<path d="M376.191 102.561H377.867C378.166 105.047 377.942 107.579 377.239 109.991L376.894 111.159C376.116 113.796 373.677 115.608 370.924 115.608H339.039V102.65C339.039 102.65 375.323 102.561 376.206 102.561H376.191Z" fill="#B1B1B1"/>
</g>
<g style="mix-blend-mode:multiply" opacity="0.3">
<path d="M270.688 101.917H88.4141V115.608H270.688V101.917Z" fill="#B1B1B1"/>
</g>
<g style="mix-blend-mode:multiply" opacity="0.3">
<path d="M20.0686 101.917V110.47H12.4376C6.9314 110.47 2.26307 106.875 0.617188 101.917H20.0686Z" fill="#B1B1B1"/>
</g>
<path d="M148.297 4.81592H179.898C192.706 4.81592 205.244 8.51598 216.017 15.4667L224.097 20.6798V44.5879H160.431C151.588 44.5879 144.406 37.4125 144.406 28.5443V8.71072C144.406 6.56858 146.142 4.81592 148.297 4.81592Z" fill="#CCE7E4"/>
<path d="M227.086 22.6123L250.861 37.9668C251.894 38.626 252.507 39.7644 252.507 40.9928C252.507 42.9851 250.891 44.588 248.916 44.588H227.086V22.6123Z" fill="#CCE7E4"/>
<path d="M76.7162 8.56104L61.4992 9.54972C58.0129 9.77442 55.3047 12.6656 55.3047 16.1559V18.4928C55.3047 31.3157 64.5366 41.9515 76.7012 44.1686V8.56104H76.7162Z" fill="#CCE7E4"/>
<path d="M129.215 5.14559L80.0781 8.33634V44.5281C80.512 44.5431 80.946 44.588 81.3948 44.588H127.3C131.175 44.588 134.303 41.4422 134.303 37.5773V9.92422C134.303 7.15292 131.968 4.96583 129.215 5.14559Z" fill="#CCE7E4"/>
<path d="M19.3343 47.9286C20.3667 47.4043 22.9403 47.7339 21.4739 52.0332C20.0076 56.3324 17.2395 64.5714 12.9602 70.3537C8.2919 76.6453 6.0924 77.6939 7.5288 69.8294C8.86048 62.4892 11.6286 51.8534 19.3493 47.9286H19.3343Z" fill="#D10F42"/>
<path d="M270.686 115.608H270.177C267.619 115.608 265.539 113.526 265.539 110.965V97.183C265.539 75.7616 282.881 58.3848 304.292 58.3848C326.257 58.3848 344.063 76.211 344.063 98.2017V115.608H339.035V98.8159C339.035 79.8511 323.534 63.7027 304.591 63.8525C286.187 63.9873 271.27 78.6827 270.701 97.0033V97.3179C270.701 97.5725 270.686 97.8272 270.686 98.0818C270.686 98.3365 270.686 98.5912 270.701 98.8458V115.623L270.686 115.608Z" fill="#86CAC4"/>
<path d="M20.0768 110.47H16.8748L14.9297 101.917V97.183C14.9297 75.7616 32.2713 58.3848 53.6828 58.3848C75.6479 58.3848 93.4534 76.211 93.4534 98.2017V110.575C93.4534 113.346 91.209 115.608 88.4259 115.608V98.8159C88.4259 79.8511 72.9247 63.7027 53.9821 63.8525C35.5781 63.9873 20.6604 78.6827 20.0918 97.0033V97.3179C20.0918 97.5725 20.0768 97.8272 20.0768 98.0818C20.0768 98.3365 20.0768 98.5912 20.0918 98.8458V110.485L20.0768 110.47Z" fill="#86CAC4"/>
<path d="M167.908 62.564V63.1632C167.908 65.7547 165.813 67.8519 163.225 67.8519H153.574C150.985 67.8519 148.891 65.7547 148.891 63.1632V62.564H167.908Z" fill="#5ABCB5"/>
<path d="M150.123 63.957H166.657C167.342 63.957 167.898 63.4004 167.898 62.7137V61.9197C167.898 61.2331 167.342 60.6764 166.657 60.6764H150.123C149.437 60.6764 148.881 61.2331 148.881 61.9197V62.7137C148.881 63.4004 149.437 63.957 150.123 63.957Z" fill="#CAE5E2"/>
<path d="M19.4084 45.8762H14.5156L17.0742 33.3379C19.0343 23.7208 26.9944 11.3473 30.1665 6.68848C30.2114 6.70346 30.1665 6.68848 30.2114 6.70346V35.0606C30.2114 41.0377 25.3635 45.8912 19.3934 45.8912L19.4084 45.8762Z" fill="#CCE7E4"/>
<path d="M240.243 53.5908H239.854C238.821 53.5908 237.968 52.7519 237.968 51.7033V40.7979C237.968 39.7643 238.806 38.9104 239.854 38.9104H240.243C243.849 38.9104 246.781 41.8465 246.781 45.4567V47.0296C246.781 50.6398 243.849 53.5758 240.243 53.5758V53.5908Z" fill="#A9D8D3"/>
<path d="M239.854 38.8955H240.213V53.5759H239.854C238.822 53.5759 237.969 52.7371 237.969 51.6884V40.783C237.969 39.7494 238.807 38.8955 239.854 38.8955Z" fill="#5ABCB5"/>
<path d="M83.5161 107.174C88.3911 90.957 79.2121 73.8541 63.0142 68.9734C46.8162 64.0927 29.7333 73.2824 24.8582 89.4992C19.9832 105.716 29.1622 122.819 45.3602 127.7C61.5581 132.58 78.641 123.391 83.5161 107.174Z" fill="#3C3C3B"/>
<path d="M72.3749 101.272C73.9978 91.218 67.1726 81.7505 57.1303 80.1257C47.0881 78.501 37.6317 85.3341 36.0088 95.3881C34.3859 105.442 41.2111 114.909 51.2534 116.534C61.2956 118.159 70.752 111.326 72.3749 101.272Z" fill="#363635"/>
<path d="M54.1898 114.186C62.9327 114.186 70.0202 107.09 70.0202 98.3367C70.0202 89.5836 62.9327 82.4878 54.1898 82.4878C45.4469 82.4878 38.3594 89.5836 38.3594 98.3367C38.3594 107.09 45.4469 114.186 54.1898 114.186Z" fill="#B1B1B1"/>
<path d="M45.125 98.3367C45.125 93.3184 49.1799 89.2588 54.1923 89.2588C59.2048 89.2588 63.2597 93.3184 63.2597 98.3367C63.2597 103.355 59.2048 107.415 54.1923 107.415C49.1799 107.415 45.125 103.355 45.125 98.3367Z" fill="#C6C6C5"/>
<path d="M47.25 98.3364H61.1503C61.1503 102.171 58.038 105.287 54.2076 105.287C50.3772 105.287 47.265 102.171 47.265 98.3364H47.25Z" fill="#D5D5D5"/>
<path d="M55.1813 88.03L56.1689 86.3223L55.1813 84.5996H53.2063L52.2188 86.3223L53.2063 88.03H55.1813Z" fill="#868686"/>
<path d="M54.5954 86.9965L54.9845 86.3224L54.5954 85.6333H53.8024L53.3984 86.3224L53.8024 86.9965H54.5954Z" fill="#C6C6C5"/>
<path d="M55.1813 112.298L56.1689 110.575L55.1813 108.867H53.2063L52.2188 110.575L53.2063 112.298H55.1813Z" fill="#868686"/>
<path d="M54.5954 111.264L54.9845 110.575L54.5954 109.886H53.8024L53.3984 110.575L53.8024 111.264H54.5954Z" fill="#C6C6C5"/>
<path d="M47.5342 90.3818L47.0255 88.4644L45.1103 87.9551L43.7188 89.3632L44.2275 91.2657L46.1427 91.79L47.5342 90.3818Z" fill="#868686"/>
<path d="M46.4005 90.0671L46.191 89.3031L45.428 89.1084L44.8594 89.6627L45.0689 90.4266L45.8319 90.6364L46.4005 90.0671Z" fill="#C6C6C5"/>
<path d="M64.667 107.534L64.1583 105.617L62.2431 105.107L60.8516 106.516L61.3603 108.418L63.2755 108.942L64.667 107.534Z" fill="#868686"/>
<path d="M63.5262 107.234L63.3167 106.47L62.5536 106.261L62 106.815L62.1945 107.579L62.9576 107.789L63.5262 107.234Z" fill="#C6C6C5"/>
<path d="M43.7936 97.4525L42.0729 96.4639L40.3672 97.4525V99.4299L42.0729 100.434L43.7936 99.4299V97.4525Z" fill="#868686"/>
<path d="M42.7594 98.0519L42.0711 97.6475L41.3828 98.0519V98.8459L42.0711 99.2353L42.7594 98.8459V98.0519Z" fill="#C6C6C5"/>
<path d="M68.0202 97.4525L66.3145 96.4639L64.5938 97.4525V99.4299L66.3145 100.434L68.0202 99.4299V97.4525Z" fill="#868686"/>
<path d="M67.0016 98.0519L66.3133 97.6475L65.625 98.0519V98.8459L66.3133 99.2353L67.0016 98.8459V98.0519Z" fill="#C6C6C5"/>
<path d="M46.1427 105.107L44.2275 105.617L43.7188 107.534L45.1103 108.942L47.0255 108.418L47.5342 106.516L46.1427 105.107Z" fill="#868686"/>
<path d="M45.8319 106.261L45.0689 106.47L44.8594 107.234L45.428 107.789L46.191 107.579L46.4005 106.815L45.8319 106.261Z" fill="#C6C6C5"/>
<path d="M63.2755 87.9551L61.3603 88.4644L60.8516 90.3818L62.2431 91.79L64.1583 91.2657L64.667 89.3632L63.2755 87.9551Z" fill="#868686"/>
<path d="M62.9576 89.1084L62.1945 89.3031L62 90.0671L62.5536 90.6364L63.3167 90.4266L63.5262 89.6627L62.9576 89.1084Z" fill="#C6C6C5"/>
<path d="M326.668 120.018C338.629 108.043 338.629 88.6277 326.668 76.6526C314.707 64.6776 295.314 64.6776 283.353 76.6526C271.392 88.6277 271.392 108.043 283.353 120.018C295.314 131.993 314.707 131.993 326.668 120.018Z" fill="#3C3C3B"/>
<path d="M323.18 101.268C324.802 91.2136 317.977 81.7461 307.935 80.1214C297.893 78.4966 288.436 85.3297 286.813 95.3837C285.191 105.438 292.016 114.905 302.058 116.53C312.1 118.155 321.557 111.321 323.18 101.268Z" fill="#363635"/>
<path d="M305.01 114.186C313.753 114.186 320.841 107.09 320.841 98.3367C320.841 89.5836 313.753 82.4878 305.01 82.4878C296.267 82.4878 289.18 89.5836 289.18 98.3367C289.18 107.09 296.267 114.186 305.01 114.186Z" fill="#B1B1B1"/>
<path d="M295.945 98.3367C295.945 93.3184 300 89.2588 305.013 89.2588C310.025 89.2588 314.08 93.3184 314.08 98.3367C314.08 103.355 310.025 107.415 305.013 107.415C300 107.415 295.945 103.355 295.945 98.3367Z" fill="#C6C6C5"/>
<path d="M298.07 98.3364H311.971C311.971 102.171 308.858 105.287 305.028 105.287C301.197 105.287 298.085 102.171 298.085 98.3364H298.07Z" fill="#D5D5D5"/>
<path d="M306.002 88.03L306.989 86.3223L306.002 84.5996H304.027L303.039 86.3223L304.027 88.03H306.002Z" fill="#868686"/>
<path d="M305.401 86.9965L305.805 86.3224L305.401 85.6333H304.608L304.219 86.3224L304.608 86.9965H305.401Z" fill="#C6C6C5"/>
<path d="M306.002 112.298L306.989 110.575L306.002 108.867H304.027L303.039 110.575L304.027 112.298H306.002Z" fill="#868686"/>
<path d="M305.401 111.264L305.805 110.575L305.401 109.886H304.608L304.219 110.575L304.608 111.264H305.401Z" fill="#C6C6C5"/>
<path d="M298.355 90.3818L297.846 88.4644L295.931 87.9551L294.539 89.3632L295.048 91.2657L296.963 91.79L298.355 90.3818Z" fill="#868686"/>
<path d="M297.206 90.0671L297.011 89.3031L296.248 89.1084L295.68 89.6627L295.889 90.4266L296.652 90.6364L297.206 90.0671Z" fill="#C6C6C5"/>
<path d="M315.487 107.534L314.979 105.617L313.063 105.107L311.672 106.516L312.181 108.418L314.096 108.942L315.487 107.534Z" fill="#868686"/>
<path d="M314.354 107.234L314.144 106.47L313.381 106.261L312.812 106.815L313.022 107.579L313.785 107.789L314.354 107.234Z" fill="#C6C6C5"/>
<path d="M294.614 97.4525L292.893 96.4639L291.188 97.4525V99.4299L292.893 100.434L294.614 99.4299V97.4525Z" fill="#868686"/>
<path d="M293.58 98.0519L292.891 97.6475L292.203 98.0519V98.8459L292.891 99.2353L293.58 98.8459V98.0519Z" fill="#C6C6C5"/>
<path d="M318.841 97.4525L317.135 96.4639L315.414 97.4525V99.4299L317.135 100.434L318.841 99.4299V97.4525Z" fill="#868686"/>
<path d="M317.807 98.0519L317.134 97.6475L316.445 98.0519V98.8459L317.134 99.2353L317.807 98.8459V98.0519Z" fill="#C6C6C5"/>
<path d="M296.963 105.107L295.048 105.617L294.539 107.534L295.931 108.942L297.846 108.418L298.355 106.516L296.963 105.107Z" fill="#868686"/>
<path d="M296.652 106.261L295.889 106.47L295.68 107.234L296.248 107.789L297.011 107.579L297.206 106.815L296.652 106.261Z" fill="#C6C6C5"/>
<path d="M314.096 87.9551L312.181 88.4644L311.672 90.3818L313.063 91.79L314.979 91.2657L315.487 89.3632L314.096 87.9551Z" fill="#868686"/>
<path d="M313.785 89.1084L313.022 89.3031L312.812 90.0671L313.381 90.6364L314.144 90.4266L314.354 89.6627L313.785 89.1084Z" fill="#C6C6C5"/>
<path d="M162.656 29.7278C161.129 29.7278 159.887 30.9712 159.887 32.4991V44.588H172.082L169.808 32.0048C169.568 30.6866 168.416 29.7129 167.084 29.7129H166.112V27.6306H167.488C169.134 27.6306 170.466 26.2974 170.466 24.6496V16.5754C170.466 14.1187 168.476 12.1113 166.007 12.1113H160.95C159.932 12.1113 159.109 12.9352 159.109 13.9539V23.9605C159.109 25.9828 160.755 27.6306 162.775 27.6306H163.853V29.7129H162.656V29.7278Z" fill="#99D1CB"/>
</g>
<defs>
<clipPath id="clip0_1435_7039">
<rect width="378" height="135" fill="white"/>
</clipPath>
</defs>
</svg>
