<svg width="252" height="170" viewBox="0 0 252 170" fill="none" xmlns="http://www.w3.org/2000/svg">
<path d="M44.9687 155.1H40.8984V164.915H44.9687V155.1Z" fill="#1A1A1A"/>
<path d="M39.4531 155.1H35.3828V164.915H39.4531V155.1Z" fill="#1A1A1A"/>
<path d="M46.4062 164.901H47.6801C50.5351 164.901 52.8485 162.586 52.8485 159.729V155.085H46.4062V164.901Z" fill="#1A1A1A"/>
<path d="M24.2382 155.1C23.4475 155.1 22.7008 154.983 21.9688 154.792V159.729C21.9688 162.586 24.2821 164.901 27.1372 164.901H28.411V155.085H24.2382V155.1Z" fill="#1A1A1A"/>
<path d="M33.9297 155.1H29.8594V164.915H33.9297V155.1Z" fill="#1A1A1A"/>
<path d="M29.8557 155.1H28.4062V164.915H29.8557V155.1Z" fill="#121212"/>
<path d="M35.3792 155.1H33.9297V164.915H35.3792V155.1Z" fill="#121212"/>
<path d="M40.9026 155.1H39.4531V164.915H40.9026V155.1Z" fill="#121212"/>
<path d="M46.4026 155.1H44.9531V164.915H46.4026V155.1Z" fill="#121212"/>
<path d="M33.9297 150.192H29.8594V155.1H33.9297V150.192Z" fill="#1A1A1A"/>
<g style="mix-blend-mode:multiply" opacity="0.7">
<path d="M33.9297 150.192H29.8594V155.1H33.9297V150.192Z" fill="#121212"/>
</g>
<path d="M44.9687 150.192H40.8984V155.1H44.9687V150.192Z" fill="#1A1A1A"/>
<g style="mix-blend-mode:multiply" opacity="0.7">
<path d="M44.9687 150.192H40.8984V155.1H44.9687V150.192Z" fill="#121212"/>
</g>
<path d="M28.411 155.1V150.193C25.8634 150.193 23.5647 149.079 21.9688 147.321V154.793C22.6862 154.983 23.4475 155.1 24.2382 155.1H28.411Z" fill="#1A1A1A"/>
<g style="mix-blend-mode:multiply" opacity="0.7">
<path d="M28.411 155.1V150.193C25.8634 150.193 23.5647 149.079 21.9688 147.321V154.793C22.6862 154.983 23.4475 155.1 24.2382 155.1H28.411Z" fill="#121212"/>
</g>
<path d="M39.4531 150.192H35.3828V155.1H39.4531V150.192Z" fill="#1A1A1A"/>
<g style="mix-blend-mode:multiply" opacity="0.7">
<path d="M39.4531 150.192H35.3828V155.1H39.4531V150.192Z" fill="#121212"/>
</g>
<path d="M52.8485 150.192H46.4062V155.1H52.8485V150.192Z" fill="#1A1A1A"/>
<g style="mix-blend-mode:multiply" opacity="0.7">
<path d="M52.8485 150.192H46.4062V155.1H52.8485V150.192Z" fill="#121212"/>
</g>
<path d="M29.8557 155.1V150.192H28.4502C28.4502 150.192 28.4209 150.192 28.4062 150.192V155.1H29.8557Z" fill="#121212"/>
<g style="mix-blend-mode:multiply" opacity="0.7">
<path d="M29.8557 155.1V150.192H28.4502C28.4502 150.192 28.4209 150.192 28.4062 150.192V155.1H29.8557Z" fill="#121212"/>
</g>
<path d="M35.3792 150.192H33.9297V155.1H35.3792V150.192Z" fill="#121212"/>
<g style="mix-blend-mode:multiply" opacity="0.7">
<path d="M35.3792 150.192H33.9297V155.1H35.3792V150.192Z" fill="#121212"/>
</g>
<path d="M40.9026 150.192H39.4531V155.1H40.9026V150.192Z" fill="#121212"/>
<g style="mix-blend-mode:multiply" opacity="0.7">
<path d="M40.9026 150.192H39.4531V155.1H40.9026V150.192Z" fill="#121212"/>
</g>
<path d="M46.4026 150.192H44.9531V155.1H46.4026V150.192Z" fill="#121212"/>
<g style="mix-blend-mode:multiply" opacity="0.7">
<path d="M46.4026 150.192H44.9531V155.1H46.4026V150.192Z" fill="#121212"/>
</g>
<path d="M41.9006 53.7539H30.1875V61.2838C31.7981 61.2838 33.3354 61.7966 34.6531 62.7048L38.7673 60.9029L41.9006 53.7393V53.7539Z" fill="#4EA19B"/>
<path d="M30.1817 53.2558C30.1817 50.1062 27.6194 47.5425 24.4716 47.5425H14.4276C10.8697 47.5425 8 50.4285 8 53.9737V56.6692C8 60.2291 10.8844 63.1004 14.4276 63.1004H28.5126C29.435 63.1004 30.1817 62.3533 30.1817 61.4303V53.2412V53.2558Z" fill="#7EC7C0"/>
<path d="M67.3866 27.4141C69.7731 19.2249 73.331 16.4708 84.3998 16.4708H168.632C179.715 16.4708 183.258 19.2249 185.645 27.4141L194.283 58.2222H208.266L194.196 26.1395C189.745 15.9874 179.701 9.42432 168.632 9.42432H84.3998C73.3163 9.42432 63.287 15.9874 58.836 26.1395L44.7656 58.2222H58.7481L67.3866 27.4141Z" fill="#4EA19B"/>
<path d="M85.0557 51.6885H75.0703V55.8343H85.0557V51.6885Z" fill="#CCE7E4"/>
<path d="M70.1831 89.0889C67.9576 85.6316 63.6969 76.6953 58.2503 70.2349C58.2503 70.2202 58.2211 70.2056 58.2064 70.1909C56.8301 68.5648 57.9429 66.0597 60.0805 66.0597H192.951C195.089 66.0597 196.201 68.5502 194.825 70.1909L194.781 70.2349C189.335 76.6953 185.074 85.6316 182.848 89.0889C187.607 81.7055 194.81 76.0947 203.39 73.5017C205.411 72.8864 206.67 72.696 206.67 72.696L208.266 58.2222H44.7656L46.3615 72.696C46.3615 72.696 47.6207 72.9011 49.6412 73.5017C58.2064 76.0947 65.41 81.7055 70.1831 89.0889Z" fill="#A9D8D3"/>
<path d="M67.4375 130.357C67.4375 136.026 72.0349 140.611 77.6865 140.611C72.0203 140.611 67.4375 136.011 67.4375 130.357Z" fill="#4EA19B"/>
<path d="M123.173 22.8139H129.864C131.079 22.8139 132.06 21.8324 132.06 20.6165V19.3127C132.06 18.0968 131.079 17.1152 129.864 17.1152H123.173C121.958 17.1152 120.977 18.0968 120.977 19.3127V20.6165C120.977 21.8324 121.958 22.8139 123.173 22.8139Z" fill="#86CAC4"/>
<path d="M94.8264 55.834H88.0035V51.6882H89.8484C91.5028 51.6882 92.7766 50.2232 92.5424 48.5825L90.7854 36.2328C90.3608 33.2883 87.8425 31.0908 84.8556 31.0908H75.2948C72.3226 31.0908 69.7897 33.2883 69.3651 36.2328L67.6081 48.5825C67.3738 50.2232 68.6476 51.6882 70.3021 51.6882H72.1469V55.834H65.324C64.0063 55.834 62.9375 56.9035 62.9375 58.2219H97.2423C97.2423 56.9035 96.1734 55.834 94.8557 55.834H94.8264ZM75.0752 55.834V51.6882H85.0606V55.834H75.0752Z" fill="#86CAC4"/>
<path d="M35.57 96.2817C35.57 89.6747 37.8394 83.2582 41.9829 78.1162L46.3461 72.6958C46.3461 72.6958 35.6872 80.9142 32.7442 86.1881C29.8013 91.462 29.5085 97.4244 30.1674 98.3327L35.8482 97.146C35.6872 96.897 35.57 96.6186 35.57 96.2964V96.2817Z" fill="#7EC7C0"/>
<path d="M35.8684 97.1318L30.1875 98.3185C31.5345 100.164 68.4308 101.996 75.5319 101.146L36.9957 97.835C36.5126 97.7911 36.1026 97.5127 35.8537 97.1318H35.8684Z" fill="#5ABCB5"/>
<path d="M70.1797 89.0889C71.8342 91.6526 73.1958 94.4213 74.2207 97.3659L75.5238 101.131L103.255 101.307C107.559 101.336 111.424 98.7137 112.991 94.6997L115.173 89.1182L70.1797 89.0889Z" fill="#5ABCB5"/>
<path d="M70.1835 89.0887C65.4251 81.7053 58.2215 76.0945 49.6417 73.5015C47.6212 72.8862 46.362 72.6958 46.362 72.6958L41.9989 78.1162C37.8407 83.2582 35.5859 89.6747 35.5859 96.2817C35.5859 96.604 35.7031 96.8823 35.8641 97.1314C36.113 97.5123 36.523 97.7906 37.0062 97.8346L75.5423 101.145L74.2392 97.3804C73.2143 94.4359 71.8526 91.6671 70.1982 89.1034L70.1835 89.0887ZM50.198 94.0696C46.0545 94.0696 42.687 90.7002 42.687 86.5544C42.687 82.4085 46.0545 79.0391 50.198 79.0391C54.3415 79.0391 57.7091 82.4085 57.7091 86.5544C57.7091 90.7002 54.3415 94.0696 50.198 94.0696ZM63.5803 97.7027C61.4426 97.7027 59.7149 95.9741 59.7149 93.8352C59.7149 91.6964 61.4426 89.9677 63.5803 89.9677C65.7179 89.9677 67.4456 91.6964 67.4456 93.8352C67.4456 95.9741 65.7179 97.7027 63.5803 97.7027Z" fill="#E4F2F0"/>
<path d="M50.1985 79.0537C46.055 79.0537 42.6875 82.4231 42.6875 86.569C42.6875 90.7148 46.055 94.0842 50.1985 94.0842C54.342 94.0842 57.7096 90.7148 57.7096 86.569C57.7096 82.4231 54.342 79.0537 50.1985 79.0537ZM50.1985 91.1397C47.6802 91.1397 45.6304 89.0887 45.6304 86.569C45.6304 84.0492 47.6802 81.9983 50.1985 81.9983C52.7168 81.9983 54.7666 84.0492 54.7666 86.569C54.7666 89.0887 52.7168 91.1397 50.1985 91.1397Z" fill="#F2F8F8"/>
<path d="M50.2009 81.9985C47.6826 81.9985 45.6328 84.0495 45.6328 86.5692C45.6328 89.089 47.6826 91.1399 50.2009 91.1399C52.7192 91.1399 54.769 89.089 54.769 86.5692C54.769 84.0495 52.7192 81.9985 50.2009 81.9985Z" fill="white"/>
<path d="M63.5763 89.9824C61.4386 89.9824 59.7109 91.7111 59.7109 93.8499C59.7109 95.9888 61.4386 97.7174 63.5763 97.7174C65.7139 97.7174 67.4416 95.9888 67.4416 93.8499C67.4416 91.7111 65.7139 89.9824 63.5763 89.9824ZM63.5763 94.7582C63.0638 94.7582 62.6539 94.348 62.6539 93.8353C62.6539 93.3225 63.0638 92.9123 63.5763 92.9123C64.0887 92.9123 64.4987 93.3225 64.4987 93.8353C64.4987 94.348 64.0887 94.7582 63.5763 94.7582Z" fill="#F2F8F8"/>
<path d="M63.5787 92.9272C63.0662 92.9272 62.6562 93.3374 62.6562 93.8502C62.6562 94.3629 63.0662 94.7731 63.5787 94.7731C64.0911 94.7731 64.5011 94.3629 64.5011 93.8502C64.5011 93.3374 64.0911 92.9272 63.5787 92.9272Z" fill="white"/>
<path d="M223.156 155.1H219.086V164.915H223.156V155.1Z" fill="#1A1A1A"/>
<path d="M212.133 155.1H208.062V164.915H212.133V155.1Z" fill="#1A1A1A"/>
<path d="M200.164 155.1V159.744C200.164 162.601 202.477 164.915 205.332 164.915H206.606V155.1H200.164Z" fill="#1A1A1A"/>
<path d="M224.609 155.1V164.915H225.883C228.738 164.915 231.052 162.601 231.052 159.744V154.807C230.334 154.998 229.573 155.115 228.782 155.115H224.609V155.1Z" fill="#1A1A1A"/>
<path d="M217.648 155.1H213.578V164.915H217.648V155.1Z" fill="#1A1A1A"/>
<path d="M224.606 155.1H223.156V164.915H224.606V155.1Z" fill="#121212"/>
<path d="M219.098 155.1H217.648V164.915H219.098V155.1Z" fill="#121212"/>
<path d="M213.582 155.1H212.133V164.915H213.582V155.1Z" fill="#121212"/>
<path d="M208.059 155.1H206.609V164.915H208.059V155.1Z" fill="#121212"/>
<path d="M212.133 150.192H208.062V155.1H212.133V150.192Z" fill="#1A1A1A"/>
<g style="mix-blend-mode:multiply" opacity="0.7">
<path d="M212.133 150.192H208.062V155.1H212.133V150.192Z" fill="#121212"/>
</g>
<path d="M217.648 150.192H213.578V155.1H217.648V150.192Z" fill="#1A1A1A"/>
<g style="mix-blend-mode:multiply" opacity="0.7">
<path d="M217.648 150.192H213.578V155.1H217.648V150.192Z" fill="#121212"/>
</g>
<path d="M223.156 150.192H219.086V155.1H223.156V150.192Z" fill="#1A1A1A"/>
<g style="mix-blend-mode:multiply" opacity="0.7">
<path d="M223.156 150.192H219.086V155.1H223.156V150.192Z" fill="#121212"/>
</g>
<path d="M224.609 150.193V155.1H228.782C229.573 155.1 230.32 154.983 231.052 154.793V147.321C229.456 149.065 227.157 150.178 224.609 150.193Z" fill="#1A1A1A"/>
<g style="mix-blend-mode:multiply" opacity="0.7">
<path d="M224.609 150.193V155.1H228.782C229.573 155.1 230.32 154.983 231.052 154.793V147.321C229.456 149.065 227.157 150.178 224.609 150.193Z" fill="#121212"/>
</g>
<path d="M206.606 150.192H200.164V155.1H206.606V150.192Z" fill="#1A1A1A"/>
<g style="mix-blend-mode:multiply" opacity="0.7">
<path d="M206.606 150.192H200.164V155.1H206.606V150.192Z" fill="#121212"/>
</g>
<path d="M224.599 155.1V150.192C224.599 150.192 224.57 150.192 224.555 150.192H223.164V155.1H224.614H224.599Z" fill="#121212"/>
<g style="mix-blend-mode:multiply" opacity="0.7">
<path d="M224.599 155.1V150.192C224.599 150.192 224.57 150.192 224.555 150.192H223.164V155.1H224.614H224.599Z" fill="#121212"/>
</g>
<path d="M219.098 150.192H217.648V155.1H219.098V150.192Z" fill="#121212"/>
<g style="mix-blend-mode:multiply" opacity="0.7">
<path d="M219.098 150.192H217.648V155.1H219.098V150.192Z" fill="#121212"/>
</g>
<path d="M213.582 150.192H212.133V155.1H213.582V150.192Z" fill="#121212"/>
<g style="mix-blend-mode:multiply" opacity="0.7">
<path d="M213.582 150.192H212.133V155.1H213.582V150.192Z" fill="#121212"/>
</g>
<path d="M208.059 150.192H206.609V155.1H208.059V150.192Z" fill="#121212"/>
<g style="mix-blend-mode:multiply" opacity="0.7">
<path d="M208.059 150.192H206.609V155.1H208.059V150.192Z" fill="#121212"/>
</g>
<path d="M238.584 47.5571H228.54C225.393 47.5571 222.83 50.1208 222.83 53.2705V53.7686H211.117L214.25 60.9322L218.365 62.7341C219.668 61.8259 221.22 61.3131 222.83 61.3131V61.4743C222.83 62.3972 223.577 63.1443 224.499 63.1443H238.57C242.128 63.1443 244.997 60.2584 244.997 56.7131V54.0176C244.997 50.4578 242.113 47.5864 238.57 47.5864L238.584 47.5571Z" fill="#4EA19B"/>
<path d="M211.122 53.754L198.237 24.3522C193.083 12.5885 181.458 5 168.632 5H84.4004C71.5599 5 59.9493 12.6032 54.7956 24.3522L41.9111 53.754L38.7779 60.9176L34.6637 62.7195L34.0194 62.9979C25.2932 66.8068 19.6562 75.4208 19.6562 84.943V110.463H93.7563V108.778C93.7563 107.445 94.8397 106.346 96.1721 106.346H156.831C158.164 106.346 159.247 107.43 159.247 108.778V110.463H233.362V84.943C233.362 75.4208 227.725 66.8068 218.999 62.9979L218.354 62.7195L214.24 60.9176L211.107 53.754H211.122ZM220.258 86.1736C223.201 91.4475 223.494 97.4099 222.835 98.3181C221.488 100.164 184.591 101.995 177.49 101.146L149.76 101.321C145.455 101.351 141.59 98.7283 140.023 94.7143L137.841 89.1328H115.162L112.98 94.7143C111.414 98.7137 107.548 101.351 103.244 101.321L75.5131 101.146C68.412 102.01 31.5158 100.164 30.1688 98.3181C29.4953 97.4099 29.8027 91.4475 32.7456 86.1736C35.6886 80.8997 46.3475 72.6813 46.3475 72.6813L44.7516 58.2075L58.8219 26.1248C63.2729 15.9726 73.3169 9.40954 84.3858 9.40954H168.618C179.701 9.40954 189.731 15.9726 194.182 26.1248L208.252 58.2075L206.656 72.6813C206.656 72.6813 217.315 80.8997 220.258 86.1736Z" fill="#99D1CB"/>
<path d="M159.261 115.355H176.259H185.571V130.357C185.571 136.026 180.974 140.611 175.322 140.611H77.6937C72.0275 140.611 67.4447 136.011 67.4447 130.357V115.355H76.7566H93.7553V110.448H19.6406V141.344C19.6406 143.644 20.5337 145.739 21.9686 147.306C23.5645 149.05 25.8632 150.163 28.4108 150.178C28.4255 150.178 28.4401 150.178 28.4547 150.178H224.561C224.561 150.178 224.591 150.178 224.605 150.178C227.153 150.178 229.452 149.064 231.047 147.306C232.482 145.739 233.375 143.644 233.375 141.344V110.448H159.261V115.355Z" fill="#7EC7C0"/>
<path d="M168.634 16.4707H84.4017C73.3182 16.4707 69.775 19.2248 67.3884 27.414L58.75 58.2222H62.9228C62.9228 56.9037 63.9916 55.8343 65.3093 55.8343H72.1322V51.6884H70.2874C68.6329 51.6884 67.3591 50.2235 67.5934 48.5827L69.3504 36.2331C69.775 33.2885 72.2933 31.091 75.2801 31.091H84.8409C87.8131 31.091 90.3461 33.2885 90.7707 36.2331L92.5277 48.5827C92.7619 50.2235 91.4881 51.6884 89.8336 51.6884H87.9888V55.8343H94.8117C96.1294 55.8343 97.1983 56.9037 97.1983 58.2222H155.793C155.793 56.9037 156.862 55.8343 158.18 55.8343H165.002V51.6884H163.158C161.503 51.6884 160.229 50.2235 160.464 48.5827L162.221 36.2331C162.645 33.2885 165.164 31.091 168.15 31.091H177.711C180.683 31.091 183.216 33.2885 183.641 36.2331L185.398 48.5827C185.632 50.2235 184.358 51.6884 182.704 51.6884H180.859V55.8343H187.682C189 55.8343 190.069 56.9037 190.069 58.2222H194.241L185.603 27.414C183.216 19.2248 179.659 16.4707 168.59 16.4707H168.634ZM140.976 25.3191C140.976 26.784 139.79 27.956 138.341 27.956H114.709C113.245 27.956 112.074 26.7694 112.074 25.3191V22.6089C112.074 21.1439 113.26 19.972 114.709 19.972H120.976V19.3274C120.976 18.1115 121.957 17.1299 123.172 17.1299H129.863C131.078 17.1299 132.059 18.1115 132.059 19.3274V19.972H138.326C139.79 19.972 140.961 21.1586 140.961 22.6089V25.3191H140.976Z" fill="#CCE7E4"/>
<path d="M177.962 51.6885H167.977V55.8343H177.962V51.6885Z" fill="#CCE7E4"/>
<path d="M182.85 89.0888C185.075 85.6315 189.336 76.6952 194.783 70.2347L194.827 70.1908C196.203 68.5647 195.09 66.0596 192.952 66.0596H60.0819C57.9442 66.0596 56.8315 68.55 58.2078 70.1908C58.2078 70.2054 58.2371 70.2201 58.2517 70.2347C63.6983 76.6952 67.959 85.6315 70.1844 89.0888L115.177 89.1181H137.857L182.85 89.0888Z" fill="#BBDFDB"/>
<path d="M156.847 124.38H96.1879C94.8555 124.38 93.7721 123.296 93.7721 121.948V115.355H76.7734V131.265C76.7734 134.327 79.2478 136.803 82.3079 136.803H170.756C173.817 136.803 176.291 134.327 176.291 131.265V115.355H159.292V121.948C159.292 123.281 158.209 124.38 156.876 124.38H156.847Z" fill="#4EA19B"/>
<path d="M170.732 136.817H82.2839C79.2238 136.817 76.7494 134.341 76.7494 131.28V115.37H67.4375V130.371C67.4375 136.041 72.0349 140.626 77.6865 140.626H175.315C180.981 140.626 185.564 136.026 185.564 130.371V115.37H176.252V131.28C176.252 134.341 173.778 136.817 170.718 136.817H170.732Z" fill="#5ABCB5"/>
<path d="M138.338 19.957H132.071V20.6016C132.071 21.8175 131.09 22.7991 129.875 22.7991H123.184C121.969 22.7991 120.988 21.8175 120.988 20.6016V19.957H114.721C113.257 19.957 112.086 21.1437 112.086 22.594V25.3041C112.086 26.7691 113.272 27.9411 114.721 27.9411H138.353C139.817 27.9411 140.988 26.7545 140.988 25.3041V22.594C140.988 21.129 139.802 19.957 138.353 19.957H138.338Z" fill="#5ABCB5"/>
<path d="M187.725 55.834H180.902V51.6882H182.747C184.401 51.6882 185.675 50.2232 185.441 48.5825L183.684 36.2328C183.259 33.2883 180.741 31.0908 177.754 31.0908H168.193C165.221 31.0908 162.688 33.2883 162.264 36.2328L160.507 48.5825C160.272 50.2232 161.546 51.6882 163.201 51.6882H165.045V55.834H158.222C156.905 55.834 155.836 56.9035 155.836 58.2219H190.141C190.141 56.9035 189.072 55.834 187.754 55.834H187.725ZM167.974 55.834V51.6882H177.959V55.834H167.974Z" fill="#86CAC4"/>
<path d="M211.035 78.1015C215.193 83.2435 217.448 89.6601 217.448 96.2671C217.448 96.5893 217.331 96.8677 217.17 97.1167L222.851 98.3034C223.524 97.3951 223.217 91.4327 220.274 86.1588C217.331 80.885 206.672 72.6665 206.672 72.6665L211.035 78.0869V78.1015Z" fill="#7EC7C0"/>
<path d="M216.028 97.8204L177.492 101.131C184.593 101.996 221.49 100.15 222.837 98.3038L217.156 97.1172C216.907 97.4981 216.497 97.7764 216.014 97.8204H216.028Z" fill="#5ABCB5"/>
<path d="M182.845 89.0889L137.852 89.1182L140.033 94.6997C141.6 98.699 145.465 101.336 149.77 101.307L177.5 101.131L178.804 97.3659C179.828 94.4213 181.19 91.6526 182.845 89.0889Z" fill="#5ABCB5"/>
<path d="M217.171 97.1314C217.332 96.8823 217.45 96.604 217.45 96.2817C217.45 89.6747 215.18 83.2582 211.037 78.1162L206.673 72.6958C206.673 72.6958 205.414 72.9009 203.394 73.5015C194.829 76.0945 187.625 81.7053 182.852 89.0887C181.197 91.6524 179.836 94.4212 178.811 97.3658L177.508 101.131L216.044 97.8199C216.527 97.776 216.937 97.4976 217.186 97.1167L217.171 97.1314ZM189.455 97.7174C187.318 97.7174 185.59 95.9887 185.59 93.8499C185.59 91.711 187.318 89.9824 189.455 89.9824C191.593 89.9824 193.321 91.711 193.321 93.8499C193.321 95.9887 191.593 97.7174 189.455 97.7174ZM202.837 94.0843C198.694 94.0843 195.326 90.7148 195.326 86.569C195.326 82.4232 198.694 79.0537 202.837 79.0537C206.981 79.0537 210.348 82.4232 210.348 86.569C210.348 90.7148 206.981 94.0843 202.837 94.0843Z" fill="#E4F2F0"/>
<path d="M202.839 79.0537C198.696 79.0537 195.328 82.4231 195.328 86.569C195.328 90.7148 198.696 94.0842 202.839 94.0842C206.983 94.0842 210.35 90.7148 210.35 86.569C210.35 82.4231 206.983 79.0537 202.839 79.0537ZM202.839 91.1397C200.321 91.1397 198.271 89.0887 198.271 86.569C198.271 84.0492 200.321 81.9983 202.839 81.9983C205.357 81.9983 207.407 84.0492 207.407 86.569C207.407 89.0887 205.357 91.1397 202.839 91.1397Z" fill="#F2F8F8"/>
<path d="M202.834 81.9985C200.315 81.9985 198.266 84.0495 198.266 86.5692C198.266 89.089 200.315 91.1399 202.834 91.1399C205.352 91.1399 207.402 89.089 207.402 86.5692C207.402 84.0495 205.352 81.9985 202.834 81.9985Z" fill="white"/>
<path d="M189.451 89.9824C187.314 89.9824 185.586 91.7111 185.586 93.8499C185.586 95.9888 187.314 97.7174 189.451 97.7174C191.589 97.7174 193.317 95.9888 193.317 93.8499C193.317 91.7111 191.589 89.9824 189.451 89.9824ZM189.451 94.7582C188.939 94.7582 188.529 94.348 188.529 93.8353C188.529 93.3225 188.939 92.9123 189.451 92.9123C189.964 92.9123 190.374 93.3225 190.374 93.8353C190.374 94.348 189.964 94.7582 189.451 94.7582Z" fill="#F2F8F8"/>
<path d="M189.454 94.758C189.963 94.758 190.376 94.3448 190.376 93.835C190.376 93.3253 189.963 92.9121 189.454 92.9121C188.944 92.9121 188.531 93.3253 188.531 93.835C188.531 94.3448 188.944 94.758 189.454 94.758Z" fill="white"/>
<path d="M93.7578 121.948C93.7578 123.281 94.8413 124.38 96.1736 124.38H156.833C158.165 124.38 159.249 123.296 159.249 121.948V108.778C159.249 107.445 158.165 106.346 156.833 106.346H96.1883C94.8559 106.346 93.7725 107.43 93.7725 108.778V121.948H93.7578ZM96.7007 109.291H156.32V121.435H96.7007V109.291Z" fill="#5ABCB5"/>
<path d="M156.315 109.291H96.6953V121.436H156.315V109.291Z" fill="#CCE7E4"/>
</svg>
