<svg width="18" height="18" viewBox="0 0 18 18" fill="none" xmlns="http://www.w3.org/2000/svg">
<path d="M15.5852 14.7898L12.2276 11.4322C13.0219 10.4625 13.5 9.22388 13.5 7.875C13.5 4.77338 10.9766 2.25 7.875 2.25C4.77338 2.25 2.25 4.77338 2.25 7.875C2.25 10.9766 4.77338 13.5 7.875 13.5C9.22388 13.5 10.4625 13.0219 11.4322 12.2276L14.7898 15.5852C15.0097 15.8051 15.3653 15.8051 15.5852 15.5852C15.8051 15.3653 15.8051 15.0097 15.5852 14.7898ZM3.375 7.875C3.375 5.39381 5.39381 3.375 7.875 3.375C10.3562 3.375 12.375 5.39381 12.375 7.875C12.375 10.3562 10.3562 12.375 7.875 12.375C5.39381 12.375 3.375 10.3562 3.375 7.875Z" fill="#2B2B2B"/>
</svg>
